<svg width="200" height="48" viewBox="0 0 200 48" fill="none" xmlns="http://www.w3.org/2000/svg">
<g style="mix-blend-mode:overlay" opacity="0.2">
<mask id="mask0_4_743" style="mask-type:alpha" maskUnits="userSpaceOnUse" x="0" y="0" width="200" height="48">
<rect width="200" height="48" rx="24" fill="url(#paint0_linear_4_743)"/>
</mask>
<g mask="url(#mask0_4_743)">
<rect width="1.10977" height="52.4292" rx="0.554885" transform="matrix(0.967094 0.25442 -0.263283 0.964719 2.90887 -1.09094)" fill="#ccc"/>
<rect width="1.10977" height="52.4292" rx="0.554885" transform="matrix(0.967094 0.25442 -0.263283 0.964719 9.79175 -1.09094)" fill="#ccc"/>
<rect width="1.10977" height="52.4292" rx="0.554885" transform="matrix(0.967094 0.25442 -0.263283 0.964719 16.6749 -1.09094)" fill="#ccc"/>
<rect width="1.10977" height="52.4292" rx="0.554885" transform="matrix(0.967094 0.25442 -0.263283 0.964719 23.5577 -1.09094)" fill="#ccc"/>
<rect width="1.10977" height="52.4292" rx="0.554885" transform="matrix(0.967094 0.25442 -0.263283 0.964719 30.4406 -1.09094)" fill="#ccc"/>
<rect width="1.10977" height="52.4292" rx="0.554885" transform="matrix(0.967094 0.25442 -0.263283 0.964719 37.3235 -1.09094)" fill="#ccc"/>
<rect width="1.10977" height="52.4292" rx="0.554885" transform="matrix(0.967094 0.25442 -0.263283 0.964719 44.2066 -1.09094)" fill="#ccc"/>
<rect width="1.10977" height="52.4292" rx="0.554885" transform="matrix(0.967094 0.25442 -0.263283 0.964719 51.0895 -1.09094)" fill="#ccc"/>
<rect width="1.10977" height="52.4292" rx="0.554885" transform="matrix(0.967094 0.25442 -0.263283 0.964719 57.9724 -1.09094)" fill="#ccc"/>
<rect width="1.10977" height="52.4292" rx="0.554885" transform="matrix(0.967094 0.25442 -0.263283 0.964719 64.8552 -1.09094)" fill="#ccc"/>
<rect width="1.10977" height="52.4292" rx="0.554885" transform="matrix(0.967094 0.25442 -0.263283 0.964719 71.7383 -1.09094)" fill="#ccc"/>
<rect width="1.10977" height="52.4292" rx="0.554885" transform="matrix(0.967094 0.25442 -0.263283 0.964719 78.6212 -1.09094)" fill="#ccc"/>
<rect width="1.10977" height="52.4292" rx="0.554885" transform="matrix(0.967094 0.25442 -0.263283 0.964719 85.5041 -1.09094)" fill="#ccc"/>
<rect width="1.10977" height="52.4292" rx="0.554885" transform="matrix(0.967094 0.25442 -0.263283 0.964719 92.387 -1.09094)" fill="#ccc"/>
<rect width="1.10977" height="52.4292" rx="0.554885" transform="matrix(0.967094 0.25442 -0.263283 0.964719 99.2701 -1.09094)" fill="#ccc"/>
<rect width="1.10977" height="52.4292" rx="0.554885" transform="matrix(0.967094 0.25442 -0.263283 0.964719 106.153 -1.09094)" fill="#ccc"/>
<rect width="1.10977" height="52.4292" rx="0.554885" transform="matrix(0.967094 0.25442 -0.263283 0.964719 113.036 -1.09094)" fill="#ccc"/>
<rect width="1.10977" height="52.4292" rx="0.554885" transform="matrix(0.967094 0.25442 -0.263283 0.964719 119.919 -1.09094)" fill="#ccc"/>
<rect width="1.10977" height="52.4292" rx="0.554885" transform="matrix(0.967094 0.25442 -0.263283 0.964719 126.802 -1.09094)" fill="#ccc"/>
<rect width="1.10977" height="52.4292" rx="0.554885" transform="matrix(0.967094 0.25442 -0.263283 0.964719 133.685 -1.09094)" fill="#ccc"/>
<rect width="1.10977" height="52.4292" rx="0.554885" transform="matrix(0.967094 0.25442 -0.263283 0.964719 140.568 -1.09094)" fill="#ccc"/>
<rect width="1.10977" height="52.4292" rx="0.554885" transform="matrix(0.967094 0.25442 -0.263283 0.964719 147.451 -1.09094)" fill="#ccc"/>
<rect width="1.10977" height="52.4292" rx="0.554885" transform="matrix(0.967094 0.25442 -0.263283 0.964719 154.ccc -1.09094)" fill="#ccc"/>
<rect width="1.10977" height="52.4292" rx="0.554885" transform="matrix(0.967094 0.25442 -0.263283 0.964719 161.216 -1.09094)" fill="#ccc"/>
<rect width="1.10977" height="52.4292" rx="0.554885" transform="matrix(0.967094 0.25442 -0.263283 0.964719 168.099 -1.09094)" fill="#ccc"/>
<rect width="1.10977" height="52.4292" rx="0.554885" transform="matrix(0.967094 0.25442 -0.263283 0.964719 174.982 -1.09094)" fill="#ccc"/>
<rect width="1.10977" height="52.4292" rx="0.554885" transform="matrix(0.967094 0.25442 -0.263283 0.964719 181.865 -1.09094)" fill="#ccc"/>
<rect width="1.10977" height="52.4292" rx="0.554885" transform="matrix(0.967094 0.25442 -0.263283 0.964719 188.748 -1.09094)" fill="#ccc"/>
<rect width="1.10977" height="52.4292" rx="0.554885" transform="matrix(0.967094 0.25442 -0.263283 0.964719 195.631 -1.09094)" fill="#ccc"/>
<rect width="1.10977" height="52.4292" rx="0.554885" transform="matrix(0.967094 0.25442 -0.263283 0.964719 202.514 -1.09094)" fill="#ccc"/>
<rect width="1.10977" height="52.4292" rx="0.554885" transform="matrix(0.967094 0.25442 -0.263283 0.964719 209.397 -1.09094)" fill="#ccc"/>
</g>
</g>
<defs>
<linearGradient id="paint0_linear_4_743" x1="0" y1="0" x2="193.316" y2="67.2229" gradientUnits="userSpaceOnUse">
<stop stop-color="#48B760"/>
<stop offset="1" stop-color="#6BB748"/>
</linearGradient>
</defs>
</svg>
